<svg width="152" height="44" viewBox="0 0 152 44" fill="none" xmlns="http://www.w3.org/2000/svg">
<path d="M151.156 38.9255C151.156 41.2704 149.221 43.1697 146.827 43.1697H5.17866C2.7864 43.1697 0.844604 41.2704 0.844604 38.9255V5.07978C0.844604 2.73607 2.7864 0.830078 5.17866 0.830078H146.826C149.221 0.830078 151.155 2.73607 151.155 5.07978L151.156 38.9255Z" fill="black"/>
<path d="M146.37 0.881376C148.977 0.881376 151.098 2.9535 151.098 5.5V38.5C151.098 41.0465 148.977 43.1186 146.37 43.1186H5.62963C3.02311 43.1186 0.902148 41.0465 0.902148 38.5V5.5C0.902148 2.9535 3.02311 0.881376 5.62963 0.881376H146.37ZM146.37 2.32537e-06H5.62963C2.53474 2.32537e-06 0 2.47638 0 5.5V38.5C0 41.5236 2.53474 44 5.62963 44H146.37C149.465 44 152 41.5236 152 38.5V5.5C152 2.47638 149.465 2.32537e-06 146.37 2.32537e-06Z" fill="#A6A6A6"/>
<path d="M33.9221 21.7626C33.8895 18.2173 36.8934 16.4925 37.0308 16.4122C35.3295 13.9889 32.6926 13.6578 31.766 13.6314C29.5513 13.4037 27.403 14.9261 26.2748 14.9261C25.1241 14.9261 23.3868 13.6534 21.5144 13.6908C19.1049 13.7271 16.8508 15.09 15.6146 17.2064C13.0632 21.5217 14.966 27.8632 17.4104 31.3513C18.6332 33.0596 20.062 34.967 21.9321 34.8999C23.7618 34.8262 24.4452 33.7603 26.6531 33.7603C28.8408 33.7603 29.4826 34.8999 31.3899 34.857C33.3535 34.8262 34.5898 33.141 35.7698 31.4173C37.1828 29.4593 37.7503 27.531 37.7728 27.432C37.7266 27.4166 33.9593 26.0119 33.9221 21.7626Z" fill="white"/>
<path d="M30.3192 11.3368C31.3032 10.1345 31.9765 8.49877 31.7896 6.83887C30.3653 6.90047 28.5841 7.80137 27.5584 8.97727C26.6509 10.0135 25.8402 11.7119 26.0496 13.3091C27.6496 13.4257 29.2923 12.5204 30.3192 11.3368Z" fill="white"/>
<path d="M60.4003 34.6549H57.8433L56.4426 30.355H51.5741L50.2399 34.6549H47.7505L52.574 20.0161H55.5532L60.4003 34.6549ZM56.0204 28.551L54.7537 24.7285C54.6198 24.338 54.3687 23.4184 53.9982 21.9708H53.9532C53.8057 22.5934 53.5681 23.513 53.2416 24.7285L51.9975 28.551H56.0204Z" fill="white"/>
<path d="M72.8046 29.247C72.8046 31.0422 72.3081 32.4612 71.315 33.5029C70.4255 34.4302 69.321 34.8933 68.0025 34.8933C66.5793 34.8933 65.557 34.3939 64.9344 33.3951H64.8893V38.9556H62.4888V27.5739C62.4888 26.4453 62.4585 25.287 62.3999 24.099H64.511L64.645 25.7721H64.69C65.4906 24.5115 66.7054 23.8823 68.3358 23.8823C69.6103 23.8823 70.6743 24.374 71.5255 25.3585C72.379 26.3441 72.8046 27.6399 72.8046 29.247ZM70.3591 29.3328C70.3591 28.3054 70.1226 27.4584 69.6475 26.7918C69.1284 26.0966 68.4315 25.749 67.5578 25.749C66.9655 25.749 66.4273 25.9426 65.9466 26.3243C65.4647 26.7093 65.1494 27.212 65.0019 27.8346C64.9276 28.125 64.8904 28.3626 64.8904 28.5496V30.3096C64.8904 31.0774 65.1314 31.7253 65.6133 32.2544C66.0952 32.7835 66.7212 33.0475 67.4913 33.0475C68.3955 33.0475 69.0992 32.7065 69.6025 32.0267C70.1069 31.3458 70.3591 30.4482 70.3591 29.3328Z" fill="white"/>
<path d="M85.2316 29.247C85.2316 31.0422 84.735 32.4612 83.7408 33.5029C82.8525 34.4302 81.7479 34.8933 80.4295 34.8933C79.0063 34.8933 77.984 34.3939 77.3625 33.3951H77.3174V38.9556H74.917V27.5739C74.917 26.4453 74.8866 25.287 74.828 24.099H76.9391L77.0731 25.7721H77.1181C77.9175 24.5115 79.1324 23.8823 80.7639 23.8823C82.0373 23.8823 83.1013 24.374 83.9548 25.3585C84.8048 26.3441 85.2316 27.6399 85.2316 29.247ZM82.7861 29.3328C82.7861 28.3054 82.5485 27.4584 82.0733 26.7918C81.5543 26.0966 80.8596 25.749 79.9847 25.749C79.3914 25.749 78.8543 25.9426 78.3724 26.3243C77.8905 26.7093 77.5764 27.212 77.4289 27.8346C77.3557 28.125 77.3174 28.3626 77.3174 28.5496V30.3096C77.3174 31.0774 77.5584 31.7253 78.038 32.2544C78.5199 32.7824 79.1459 33.0475 79.9183 33.0475C80.8224 33.0475 81.5261 32.7065 82.0294 32.0267C82.5338 31.3458 82.7861 30.4482 82.7861 29.3328Z" fill="white"/>
<path d="M99.1252 30.5494C99.1252 31.7946 98.6827 32.8077 97.7944 33.5898C96.8182 34.4445 95.4592 34.8713 93.7129 34.8713C92.1006 34.8713 90.808 34.5677 89.8296 33.9594L90.3858 32.0047C91.4397 32.6273 92.596 32.9397 93.8559 32.9397C94.76 32.9397 95.4637 32.7395 95.9693 32.3413C96.4726 31.9431 96.7236 31.4085 96.7236 30.7419C96.7236 30.1479 96.5165 29.6474 96.101 29.2415C95.6878 28.8356 94.9976 28.4583 94.0338 28.1096C91.4104 27.1537 90.0998 25.7534 90.0998 23.912C90.0998 22.7086 90.5592 21.7219 91.4791 20.9541C92.3956 20.1852 93.6183 19.8013 95.1473 19.8013C96.5108 19.8013 97.6435 20.0334 98.5476 20.4965L97.9475 22.4083C97.1031 21.9595 96.1483 21.7351 95.0798 21.7351C94.2353 21.7351 93.5756 21.9386 93.1027 22.3434C92.703 22.7053 92.5025 23.1464 92.5025 23.6689C92.5025 24.2475 92.7311 24.726 93.1905 25.1022C93.5902 25.4498 94.3164 25.826 95.3703 26.2319C96.6595 26.739 97.6064 27.3319 98.2155 28.0117C98.8224 28.6893 99.1252 29.5374 99.1252 30.5494Z" fill="white"/>
<path d="M107.062 25.8588H104.416V30.9838C104.416 32.2873 104.882 32.9385 105.817 32.9385C106.246 32.9385 106.602 32.9022 106.883 32.8296L106.95 34.6105C106.477 34.7832 105.854 34.8701 105.083 34.8701C104.135 34.8701 103.394 34.5874 102.859 34.0231C102.327 33.4577 102.059 32.5095 102.059 31.1774V25.8567H100.482V24.0967H102.059V22.164L104.416 21.4688V24.0967H107.062V25.8588Z" fill="white"/>
<path d="M119 29.2898C119 30.9123 118.525 32.2444 117.577 33.2861C116.583 34.3586 115.263 34.8932 113.618 34.8932C112.033 34.8932 110.771 34.3795 109.83 33.3521C108.888 32.3247 108.418 31.0278 108.418 29.4647C108.418 27.829 108.902 26.4892 109.873 25.4475C110.843 24.4047 112.151 23.8833 113.796 23.8833C115.381 23.8833 116.657 24.397 117.62 25.4255C118.541 26.4232 119 27.7113 119 29.2898ZM116.51 29.3657C116.51 28.3922 116.297 27.5573 115.866 26.861C115.362 26.0184 114.643 25.5982 113.711 25.5982C112.746 25.5982 112.013 26.0195 111.509 26.861C111.078 27.5584 110.865 28.4065 110.865 29.4097C110.865 30.3832 111.078 31.2181 111.509 31.9133C112.028 32.7559 112.754 33.1761 113.689 33.1761C114.606 33.1761 115.325 32.7471 115.844 31.8913C116.287 31.1818 116.51 30.3381 116.51 29.3657Z" fill="white"/>
<path d="M126.803 26.1615C126.565 26.1186 126.312 26.0966 126.046 26.0966C125.202 26.0966 124.549 26.4079 124.089 27.0316C123.69 27.5816 123.489 28.2768 123.489 29.1161V34.6546H121.09L121.113 27.4232C121.113 26.2066 121.082 25.0989 121.022 24.1001H123.113L123.201 26.1197H123.268C123.521 25.4256 123.921 24.8668 124.468 24.4477C125.003 24.0704 125.58 23.8823 126.203 23.8823C126.425 23.8823 126.625 23.8977 126.803 23.9252V26.1615Z" fill="white"/>
<path d="M137.539 28.8772C137.539 29.2974 137.511 29.6516 137.451 29.9409H130.249C130.278 30.9837 130.625 31.7812 131.294 32.3312C131.901 32.8229 132.686 33.0693 133.65 33.0693C134.716 33.0693 135.689 32.9032 136.564 32.5699L136.94 34.1979C135.917 34.6335 134.71 34.8502 133.318 34.8502C131.642 34.8502 130.327 34.3684 129.37 33.4059C128.415 32.4434 127.937 31.1509 127.937 29.5295C127.937 27.9378 128.382 26.6123 129.272 25.5552C130.204 24.4266 131.464 23.8623 133.05 23.8623C134.607 23.8623 135.786 24.4266 136.586 25.5552C137.22 26.4517 137.539 27.5605 137.539 28.8772ZM135.25 28.2689C135.265 27.5737 135.109 26.9731 134.784 26.466C134.368 25.8137 133.73 25.4881 132.871 25.4881C132.086 25.4881 131.447 25.806 130.96 26.444C130.56 26.9511 130.323 27.5594 130.249 28.2678H135.25V28.2689Z" fill="white"/>
<path d="M55.2265 11.0106C55.2265 12.3053 54.8291 13.2799 54.0353 13.9344C53.3001 14.5383 52.2552 14.8408 50.9018 14.8408C50.2308 14.8408 49.6566 14.8122 49.1758 14.755V7.68085C49.8029 7.58185 50.4785 7.53125 51.2081 7.53125C52.4973 7.53125 53.4689 7.80515 54.1242 8.35295C54.8583 8.97225 55.2265 9.85775 55.2265 11.0106ZM53.9824 11.0425C53.9824 10.2032 53.7549 9.55965 53.3001 9.11085C52.8452 8.66315 52.1809 8.43875 51.306 8.43875C50.9345 8.43875 50.6181 8.46295 50.3558 8.51355V13.8915C50.501 13.9135 50.7667 13.9234 51.1529 13.9234C52.0559 13.9234 52.7529 13.6781 53.2438 13.1875C53.7347 12.6969 53.9824 11.9819 53.9824 11.0425Z" fill="white"/>
<path d="M61.8233 12.1412C61.8233 12.9387 61.5902 13.5921 61.1241 14.1047C60.6354 14.6316 59.988 14.8945 59.1796 14.8945C58.4005 14.8945 57.7801 14.6426 57.3173 14.1366C56.8557 13.6317 56.6249 12.9948 56.6249 12.227C56.6249 11.424 56.8624 10.7651 57.3398 10.2536C57.8172 9.74214 58.459 9.48584 59.2674 9.48584C60.0466 9.48584 60.6726 9.73774 61.1466 10.2426C61.597 10.7332 61.8233 11.3668 61.8233 12.1412ZM60.5994 12.1786C60.5994 11.7001 60.4936 11.2898 60.283 10.9477C60.0353 10.5341 59.6829 10.3273 59.2246 10.3273C58.7506 10.3273 58.3903 10.5341 58.1426 10.9477C57.931 11.2898 57.8262 11.7067 57.8262 12.1995C57.8262 12.678 57.9321 13.0883 58.1426 13.4304C58.3982 13.844 58.754 14.0508 59.2134 14.0508C59.6638 14.0508 60.0173 13.8407 60.2718 13.4194C60.4902 13.0707 60.5994 12.6571 60.5994 12.1786Z" fill="white"/>
<path d="M70.6687 9.59131L69.008 14.7767H67.9271L67.2391 12.525C67.0646 11.9629 66.9228 11.4041 66.8124 10.8497H66.791C66.6886 11.4195 66.5467 11.9772 66.3643 12.525L65.6336 14.7767H64.5403L62.9786 9.59131H64.1913L64.7914 12.0564C64.9366 12.6394 65.056 13.1949 65.1517 13.7207H65.1731C65.2609 13.2873 65.4061 12.7351 65.611 12.0674L66.3643 9.59241H67.3258L68.0476 12.0146C68.2221 12.6053 68.3639 13.174 68.4732 13.7218H68.5058C68.5857 13.1883 68.7062 12.6196 68.8661 12.0146L69.5101 9.59241H70.6687V9.59131Z" fill="white"/>
<path d="M76.7859 14.7767H75.6059V11.8067C75.6059 10.8915 75.2501 10.4339 74.5363 10.4339C74.1861 10.4339 73.9035 10.5593 73.6839 10.8112C73.4666 11.0631 73.3563 11.3601 73.3563 11.7V14.7756H72.1763V11.073C72.1763 10.6176 72.1617 10.1237 72.1335 9.58912H73.1705L73.2257 10.3998H73.2583C73.3957 10.1479 73.6006 9.94002 73.8697 9.77392C74.1895 9.58032 74.5475 9.48242 74.9393 9.48242C75.4347 9.48242 75.8468 9.63862 76.1745 9.95212C76.5821 10.336 76.7859 10.9091 76.7859 11.6703V14.7767Z" fill="white"/>
<path d="M80.0398 14.7766H78.861V7.21191H80.0398V14.7766Z" fill="white"/>
<path d="M86.987 12.1412C86.987 12.9387 86.7539 13.5921 86.2878 14.1047C85.7991 14.6316 85.1506 14.8945 84.3433 14.8945C83.563 14.8945 82.9426 14.6426 82.481 14.1366C82.0194 13.6317 81.7886 12.9948 81.7886 12.227C81.7886 11.424 82.0261 10.7651 82.5035 10.2536C82.9809 9.74214 83.6227 9.48584 84.43 9.48584C85.2103 9.48584 85.8352 9.73774 86.3103 10.2426C86.7607 10.7332 86.987 11.3668 86.987 12.1412ZM85.762 12.1786C85.762 11.7001 85.6561 11.2898 85.4456 10.9477C85.199 10.5341 84.8455 10.3273 84.3883 10.3273C83.9132 10.3273 83.5529 10.5341 83.3063 10.9477C83.0946 11.2898 82.9899 11.7067 82.9899 12.1995C82.9899 12.678 83.0958 13.0883 83.3063 13.4304C83.5619 13.844 83.9177 14.0508 84.3771 14.0508C84.8275 14.0508 85.1799 13.8407 85.4343 13.4194C85.6539 13.0707 85.762 12.6571 85.762 12.1786Z" fill="white"/>
<path d="M92.6974 14.7768H91.6379L91.5501 14.1795H91.5174C91.1549 14.6558 90.6381 14.8945 89.967 14.8945C89.466 14.8945 89.0607 14.7372 88.7556 14.4248C88.4786 14.141 88.3401 13.7879 88.3401 13.3688C88.3401 12.7352 88.6103 12.2523 89.1541 11.9179C89.6968 11.5835 90.4602 11.4196 91.4431 11.4273V11.3305C91.4431 10.6474 91.0761 10.3064 90.3409 10.3064C89.8173 10.3064 89.3557 10.4351 88.9571 10.6903L88.7173 9.93354C89.2104 9.63544 89.8196 9.48584 90.5379 9.48584C91.925 9.48584 92.6209 10.2008 92.6209 11.6308V13.5404C92.6209 14.0585 92.6468 14.471 92.6974 14.7768ZM91.4724 12.9948V12.1951C90.1708 12.1731 89.5201 12.5218 89.5201 13.2401C89.5201 13.5107 89.5944 13.7131 89.7464 13.8484C89.8984 13.9837 90.092 14.0508 90.3228 14.0508C90.5818 14.0508 90.8239 13.9705 91.0446 13.811C91.2664 13.6504 91.4026 13.4469 91.4533 13.1972C91.4657 13.1411 91.4724 13.0729 91.4724 12.9948Z" fill="white"/>
<path d="M99.4025 14.7766H98.3554L98.3002 13.9439H98.2675C97.9331 14.5775 97.3634 14.8943 96.5629 14.8943C95.9234 14.8943 95.3908 14.649 94.9686 14.1584C94.5464 13.6678 94.3358 13.0309 94.3358 12.2488C94.3358 11.4095 94.5644 10.7297 95.0238 10.2105C95.4685 9.72651 96.0134 9.48451 96.662 9.48451C97.3747 9.48451 97.8735 9.71881 98.1572 10.1885H98.1797V7.21191H99.3608V13.3796C99.3608 13.8845 99.3743 14.3498 99.4025 14.7766ZM98.1797 12.5898V11.7252C98.1797 11.5756 98.1685 11.4546 98.1471 11.3622C98.0806 11.085 97.9376 10.8518 97.7203 10.6637C97.5008 10.4756 97.2362 10.381 96.9311 10.381C96.4908 10.381 96.1463 10.5515 95.893 10.8936C95.6419 11.2357 95.5147 11.6724 95.5147 12.2059C95.5147 12.7185 95.6351 13.1343 95.8772 13.4544C96.1328 13.7954 96.4773 13.9659 96.9085 13.9659C97.2959 13.9659 97.6055 13.824 97.8408 13.5391C98.0683 13.2762 98.1797 12.9594 98.1797 12.5898Z" fill="white"/>
<path d="M109.494 12.1412C109.494 12.9387 109.261 13.5921 108.795 14.1047C108.306 14.6316 107.66 14.8945 106.85 14.8945C106.072 14.8945 105.452 14.6426 104.988 14.1366C104.526 13.6317 104.296 12.9948 104.296 12.227C104.296 11.424 104.533 10.7651 105.01 10.2536C105.488 9.74214 106.13 9.48584 106.939 9.48584C107.717 9.48584 108.344 9.73774 108.817 10.2426C109.268 10.7332 109.494 11.3668 109.494 12.1412ZM108.271 12.1786C108.271 11.7001 108.165 11.2898 107.955 10.9477C107.706 10.5341 107.355 10.3273 106.895 10.3273C106.422 10.3273 106.062 10.5341 105.813 10.9477C105.602 11.2898 105.497 11.7067 105.497 12.1995C105.497 12.678 105.603 13.0883 105.813 13.4304C106.069 13.844 106.425 14.0508 106.884 14.0508C107.334 14.0508 107.689 13.8407 107.944 13.4194C108.161 13.0707 108.271 12.6571 108.271 12.1786Z" fill="white"/>
<path d="M115.838 14.7767H114.66V11.8067C114.66 10.8915 114.304 10.4339 113.589 10.4339C113.239 10.4339 112.956 10.5593 112.738 10.8112C112.519 11.0631 112.41 11.3601 112.41 11.7V14.7756H111.229V11.073C111.229 10.6176 111.215 10.1237 111.187 9.58912H112.223L112.278 10.3998H112.311C112.449 10.1479 112.654 9.94002 112.922 9.77392C113.243 9.58032 113.6 9.48242 113.993 9.48242C114.487 9.48242 114.899 9.63862 115.227 9.95212C115.636 10.336 115.838 10.9091 115.838 11.6703V14.7767Z" fill="white"/>
<path d="M123.78 10.4547H122.481V12.9737C122.481 13.6139 122.711 13.934 123.169 13.934C123.38 13.934 123.556 13.9164 123.694 13.8801L123.725 14.7546C123.492 14.8404 123.185 14.8833 122.808 14.8833C122.342 14.8833 121.98 14.7447 121.717 14.4675C121.454 14.1903 121.323 13.7239 121.323 13.0694V10.4547H120.547V9.5912H121.323V8.6408L122.479 8.2998V9.59011H123.779V10.4547H123.78Z" fill="white"/>
<path d="M130.026 14.7766H128.845V11.8286C128.845 10.8991 128.489 10.4338 127.777 10.4338C127.229 10.4338 126.856 10.7033 126.651 11.2423C126.616 11.3556 126.596 11.4942 126.596 11.657V14.7755H125.417V7.21191H126.596V10.337H126.618C126.99 9.76831 127.522 9.48451 128.212 9.48451C128.701 9.48451 129.105 9.64071 129.426 9.95421C129.826 10.3447 130.026 10.9255 130.026 11.6933V14.7766Z" fill="white"/>
<path d="M136.47 11.9385C136.47 12.1453 136.454 12.3191 136.426 12.461H132.887C132.903 12.9736 133.072 13.3641 133.4 13.6347C133.699 13.8767 134.085 13.9977 134.558 13.9977C135.082 13.9977 135.559 13.9163 135.989 13.7524L136.174 14.5532C135.671 14.7666 135.078 14.8733 134.393 14.8733C133.571 14.8733 132.923 14.6368 132.455 14.1638C131.984 13.6908 131.751 13.0561 131.751 12.2597C131.751 11.4776 131.969 10.8264 132.407 10.3072C132.864 9.75279 133.482 9.47559 134.262 9.47559C135.026 9.47559 135.605 9.75279 135.997 10.3072C136.314 10.7472 136.47 11.2917 136.47 11.9385ZM135.344 11.6404C135.353 11.2983 135.275 11.0035 135.116 10.7549C134.911 10.4348 134.599 10.2742 134.177 10.2742C133.792 10.2742 133.477 10.4304 133.238 10.7439C133.042 10.9936 132.926 11.2917 132.887 11.6404H135.344Z" fill="white"/>
</svg>
