<svg width="639" height="877" viewBox="0 0 639 877" fill="none" xmlns="http://www.w3.org/2000/svg">
<path d="M439.276 810.164C438.683 810.855 437.918 811.378 437.057 811.679C434.565 812.748 431.673 812.279 429.634 810.476L428.474 809.061C427.852 808.053 427.502 806.902 427.459 805.721L427.619 803.987C427.877 802.806 428.451 801.719 429.278 800.839C431.885 798.189 436.121 798.052 438.92 800.527L440.08 801.942C440.703 802.949 441.053 804.099 441.097 805.279L440.938 807.019C440.676 808.198 440.103 809.285 439.279 810.167L439.276 810.164Z" fill="#D5E2E8"/>
<path d="M443.35 848.702L443.387 848.662C443.477 848.515 443.575 848.374 443.682 848.24C443.933 847.803 444.301 847.445 444.745 847.207L444.785 847.164C444.933 847.073 445.093 847.002 445.26 846.953C445.88 846.677 446.561 846.565 447.239 846.627C447.758 846.635 448.267 846.776 448.717 847.036L449.588 847.658L450.265 848.481L450.688 849.424L450.857 850.427C450.899 850.941 450.807 851.457 450.589 851.923C450.514 852.268 450.347 852.586 450.105 852.842C449.94 853.158 449.692 853.424 449.388 853.61C449.149 853.87 448.844 854.059 448.505 854.158C448.055 854.408 447.547 854.535 447.031 854.529L446.019 854.43L445.049 854.074L444.181 853.456L443.5 852.63C443.209 852.199 443.032 851.701 442.988 851.184C442.891 850.856 442.879 850.51 442.954 850.177C442.957 849.657 443.095 849.148 443.353 848.698L443.35 848.702Z" fill="#D5E2E8"/>
<path d="M468.886 836.025C466.276 838.824 461.902 834.75 464.515 831.949C467.128 829.147 471.502 833.22 468.886 836.025Z" fill="#D5E2E8"/>
<path d="M466.144 811.28L466.068 810.377C466.043 809.719 466.28 809.079 466.729 808.599C467.179 808.121 467.799 807.84 468.457 807.816L469.366 807.838C469.942 807.844 470.51 807.974 471.032 808.219C471.452 808.414 471.811 808.718 472.07 809.101C472.286 809.304 472.445 809.561 472.53 809.845C472.684 810.091 472.77 810.373 472.778 810.662C472.876 811.226 472.823 811.805 472.626 812.341C472.508 812.772 472.279 813.165 471.961 813.479C471.549 813.899 471.042 814.215 470.482 814.401C469.931 814.556 469.349 814.575 468.787 814.456L467.97 814.156C467.56 813.96 467.209 813.66 466.951 813.286C466.733 813.085 466.574 812.828 466.492 812.543C466.277 812.165 466.167 811.738 466.17 811.305L466.144 811.28Z" fill="#D5E2E8"/>
<path d="M409.151 848.805C409.111 848.792 409.07 848.783 409.028 848.777L410.773 848.947C410.691 848.938 410.608 848.939 410.526 848.952L412.27 848.672C412.101 848.708 411.935 848.761 411.776 848.828L413.413 848.097C413.319 848.142 413.229 848.197 413.148 848.262C412.404 848.764 411.541 849.063 410.645 849.131C409.78 849.346 408.873 849.336 408.01 849.104L406.357 848.476C405.511 848.074 404.785 847.454 404.254 846.681C403.803 846.268 403.469 845.744 403.285 845.161C402.849 844.376 402.622 843.493 402.626 842.596L402.788 840.828C403.055 839.633 403.636 838.533 404.471 837.64C404.948 837.093 405.511 836.626 406.138 836.258L406.251 836.197L407.895 835.465C408.507 835.251 409.15 835.14 409.8 835.138C410.787 835.069 411.776 835.25 412.678 835.662C413.657 835.951 414.551 836.476 415.282 837.191L416.443 838.606C416.942 839.344 417.242 840.198 417.313 841.084C417.484 841.647 417.507 842.244 417.378 842.816C417.373 843.703 417.138 844.573 416.697 845.341L415.645 846.828L414.235 847.981C412.695 848.835 410.904 849.127 409.167 848.807L409.151 848.805Z" fill="#D5E2E8"/>
<path d="M426.834 868.661C424.895 870.74 421.646 867.716 423.588 865.633C425.53 863.551 428.773 866.582 426.834 868.661Z" fill="#D5E2E8"/>
<path d="M394.485 873.542C392.863 875.281 390.144 872.751 391.769 871.009C393.394 869.267 396.11 871.8 394.485 873.542Z" fill="#D5E2E8"/>
<path d="M629.948 798.25L629.883 797.794C629.844 797.322 629.929 796.848 630.129 796.419C630.256 795.946 630.508 795.516 630.858 795.173L631.615 794.554C632.155 794.225 632.771 794.041 633.404 794.019L633.86 794.055L634.894 794.15L635.887 794.514C636.385 794.754 636.812 795.118 637.127 795.572C637.573 796.121 637.871 796.775 637.991 797.47C638.091 797.806 638.103 798.162 638.027 798.503C638.04 798.857 637.959 799.207 637.792 799.519C637.654 800.045 637.376 800.523 636.986 800.902L636.144 801.591L635.181 802.019L634.157 802.187L633.122 802.086L632.129 801.721C631.631 801.486 631.204 801.122 630.893 800.667C630.628 800.421 630.433 800.109 630.328 799.764C630.072 799.302 629.939 798.783 629.942 798.256L629.948 798.25Z" fill="#D5E2E8"/>
<path d="M602.531 770.506C600.275 772.924 596.495 769.405 598.754 766.983C601.013 764.561 604.79 768.083 602.531 770.506Z" fill="#D5E2E8"/>
<path d="M599.454 795.681C596.527 798.819 591.622 794.251 594.552 791.109C597.482 787.968 602.399 792.523 599.454 795.681Z" fill="#D5E2E8"/>
<path d="M618.018 797.216C616.396 798.955 613.677 796.426 615.302 794.683C616.927 792.941 619.64 795.477 618.018 797.216Z" fill="#D5E2E8"/>
<path d="M604.615 836.424C601.134 840.156 595.298 834.726 598.785 830.987C602.272 827.248 608.102 832.685 604.615 836.424Z" fill="#D5E2E8"/>
<path d="M530.023 737.554L530.556 737.242L531.337 736.897C531.736 736.765 532.162 736.738 532.576 736.818C532.862 736.805 533.146 736.87 533.399 737.006C533.825 737.12 534.213 737.347 534.522 737.664L535.085 738.35L535.434 739.132C535.568 739.53 535.599 739.956 535.522 740.368C535.518 740.797 535.404 741.217 535.19 741.588L534.913 742.144C534.336 743.255 533.201 743.963 531.947 743.994L531.064 743.911C530.463 743.768 529.912 743.466 529.466 743.038C529.105 742.733 528.831 742.337 528.675 741.892C528.455 741.498 528.341 741.054 528.345 740.603C528.295 739.352 528.921 738.173 529.984 737.516L530.023 737.554Z" fill="#D5E2E8"/>
<path d="M454.569 768.338C454.252 768.711 453.84 768.991 453.377 769.151C452.964 769.381 452.497 769.499 452.023 769.492C451.059 769.488 450.127 769.138 449.397 768.505L448.773 767.744C448.438 767.205 448.251 766.587 448.229 765.954L448.313 765.026C448.455 764.393 448.762 763.809 449.204 763.333C449.889 762.661 450.791 762.253 451.75 762.179C452.713 762.187 453.643 762.538 454.373 763.169L455 763.927C455.331 764.468 455.519 765.084 455.544 765.717L455.46 766.651C455.32 767.284 455.012 767.866 454.569 768.338Z" fill="#D5E2E8"/>
<path d="M332.74 875.788C330.327 878.375 326.285 874.612 328.701 872.021C331.117 869.431 335.159 873.194 332.74 875.788Z" fill="#D5E2E8"/>
<path d="M325.359 579.268C324.482 579.513 323.555 579.521 322.672 579.293C320.007 578.795 317.865 576.797 317.173 574.164L316.997 572.342C317.041 571.159 317.391 570.008 318.012 569.002L319.109 567.651C319.981 566.813 321.062 566.228 322.239 565.957C325.88 565.206 329.476 567.449 330.425 571.062L330.602 572.884C330.559 574.066 330.21 575.217 329.591 576.222L328.49 577.58C327.616 578.413 326.536 578.998 325.36 579.273L325.359 579.268Z" fill="#D5E2E8"/>
<path d="M307.305 613.559L307.358 613.546C307.514 613.474 307.674 613.411 307.838 613.359C308.289 613.136 308.794 613.043 309.295 613.092L309.353 613.079C309.526 613.085 309.699 613.115 309.865 613.168C310.534 613.284 311.162 613.569 311.691 613.998C312.118 614.293 312.462 614.693 312.691 615.16L313.069 616.161L313.174 617.222L313.001 618.241L312.583 619.168C312.332 619.619 311.969 619.996 311.528 620.263C311.274 620.508 310.958 620.678 310.615 620.756C310.301 620.927 309.948 621.01 309.591 620.996C309.249 621.079 308.89 621.066 308.554 620.96C308.04 620.917 307.547 620.741 307.122 620.448L306.336 619.803L305.728 618.968L305.35 617.971L305.244 616.906C305.242 616.386 305.372 615.874 305.624 615.42C305.725 615.093 305.908 614.799 306.155 614.564C306.447 614.134 306.845 613.787 307.31 613.557L307.305 613.559Z" fill="#D5E2E8"/>
<path d="M335.577 617.231C331.851 618.104 330.483 612.287 334.213 611.412C337.942 610.538 339.311 616.356 335.577 617.231Z" fill="#D5E2E8"/>
<path d="M347.064 595.143L347.504 594.351C347.849 593.79 348.402 593.39 349.042 593.241C349.682 593.094 350.354 593.206 350.913 593.552L351.657 594.076C352.132 594.401 352.532 594.826 352.829 595.32C353.07 595.714 353.199 596.167 353.201 596.63C353.268 596.919 353.257 597.22 353.17 597.503C353.161 597.793 353.075 598.076 352.921 598.321C352.688 598.844 352.323 599.296 351.861 599.631C351.523 599.924 351.114 600.122 350.675 600.207C350.098 600.327 349.501 600.307 348.933 600.15C348.388 599.972 347.895 599.665 347.495 599.253L346.982 598.549C346.75 598.158 346.625 597.714 346.619 597.26C346.55 596.971 346.561 596.669 346.651 596.386C346.683 595.953 346.828 595.537 347.072 595.179L347.064 595.143Z" fill="#D5E2E8"/>
<path d="M278.829 594.618C278.803 594.585 278.774 594.555 278.743 594.526L280.098 595.639C280.035 595.585 279.965 595.54 279.89 595.505L281.495 596.242C281.334 596.179 281.168 596.13 280.998 596.098L282.765 596.401C282.662 596.385 282.557 596.382 282.452 596.391C281.555 596.394 280.672 596.163 279.89 595.72C279.051 595.417 278.303 594.905 277.715 594.232L276.691 592.79C276.211 591.985 275.953 591.067 275.942 590.13C275.797 589.535 275.811 588.913 275.983 588.327C276.057 587.432 276.359 586.571 276.862 585.829L277.98 584.449C278.867 583.606 279.961 583.015 281.152 582.737C281.853 582.548 282.581 582.473 283.306 582.516L283.434 582.528L285.207 582.834C285.835 582.997 286.431 583.263 286.972 583.622C287.83 584.114 288.552 584.815 289.072 585.659C289.725 586.444 290.176 587.378 290.386 588.378L290.562 590.2C290.567 591.091 290.341 591.967 289.907 592.743C289.737 593.306 289.423 593.814 288.997 594.218C288.5 594.953 287.821 595.545 287.027 595.938L285.326 596.588L283.513 596.762C281.758 596.615 280.107 595.861 278.841 594.629L278.829 594.618Z" fill="#D5E2E8"/>
<path d="M282.477 620.956C279.709 621.605 278.692 617.283 281.464 616.634C284.236 615.984 285.245 620.307 282.477 620.956Z" fill="#D5E2E8"/>
<path d="M252.881 607.015C250.565 607.557 249.713 603.943 252.033 603.399C254.353 602.855 255.2 606.471 252.881 607.015Z" fill="#D5E2E8"/>
<path d="M490.429 675.445L490.628 675.03C490.858 674.615 491.192 674.269 491.598 674.025C491.966 673.702 492.415 673.485 492.896 673.394L493.87 673.301C494.502 673.328 495.116 673.518 495.654 673.852L496.013 674.136L496.819 674.789L497.442 675.645C497.722 676.12 497.875 676.661 497.884 677.213C497.949 677.918 497.833 678.627 497.546 679.272C497.442 679.607 497.254 679.909 497.001 680.15C496.815 680.451 496.553 680.697 496.241 680.863C495.834 681.224 495.336 681.466 494.802 681.564L493.719 681.669L492.68 681.489L491.735 681.058L490.932 680.399L490.31 679.543C490.026 679.07 489.874 678.53 489.869 677.979C489.786 677.627 489.798 677.26 489.902 676.914C489.947 676.388 490.125 675.883 490.42 675.447L490.429 675.445Z" fill="#D5E2E8"/>
<path d="M483.081 637.138C479.861 637.893 478.678 632.865 481.902 632.109C485.127 631.353 486.306 636.382 483.081 637.138Z" fill="#D5E2E8"/>
<path d="M466.518 656.345C462.34 657.324 460.806 650.8 464.989 649.82C469.171 648.839 470.723 655.359 466.518 656.345Z" fill="#D5E2E8"/>
<path d="M481.09 667.949C478.775 668.492 477.923 664.877 480.243 664.333C482.562 663.79 483.405 667.406 481.09 667.949Z" fill="#D5E2E8"/>
<path d="M448.14 693.073C443.171 694.237 441.343 686.478 446.32 685.311C451.298 684.144 453.118 691.906 448.14 693.073Z" fill="#D5E2E8"/>
<path d="M441.162 569.418L441.778 569.455L442.619 569.602C443.024 569.715 443.394 569.93 443.692 570.226C443.937 570.375 444.137 570.587 444.272 570.84C444.563 571.172 444.758 571.577 444.839 572.012L444.925 572.895L444.78 573.739C444.67 574.145 444.459 574.515 444.166 574.815C443.924 575.17 443.595 575.455 443.211 575.644L442.671 575.952C441.574 576.554 440.237 576.511 439.178 575.84L438.49 575.279C438.071 574.826 437.78 574.269 437.648 573.665C437.517 573.21 437.51 572.73 437.628 572.272C437.664 571.822 437.817 571.39 438.071 571.018C438.725 569.95 439.901 569.319 441.15 569.365L441.162 569.418Z" fill="#D5E2E8"/>
<path d="M361.337 553.02C360.866 553.154 360.367 553.158 359.893 553.033C359.422 552.994 358.969 552.832 358.578 552.563C357.78 552.023 357.2 551.214 356.945 550.282L356.85 549.303C356.872 548.668 357.06 548.051 357.394 547.512L357.98 546.788C358.451 546.341 359.031 546.026 359.662 545.877C360.606 545.7 361.582 545.862 362.42 546.334C363.216 546.877 363.793 547.686 364.049 548.617L364.149 549.595C364.123 550.229 363.936 550.845 363.604 551.385L363.015 552.115C362.547 552.562 361.967 552.875 361.337 553.02Z" fill="#D5E2E8"/>
<path d="M200.323 574.531C196.879 575.338 195.614 569.962 199.063 569.153C202.512 568.345 203.777 573.721 200.323 574.531Z" fill="#D5E2E8"/>
<path d="M132.898 114.857C133.777 114.619 134.704 114.617 135.585 114.853C138.246 115.372 140.373 117.386 141.044 120.024L141.207 121.847C141.153 123.03 140.795 124.179 140.166 125.179L139.059 126.522C138.18 127.353 137.094 127.93 135.916 128.191C132.269 128.914 128.691 126.644 127.769 123.024L127.607 121.201C127.658 120.019 128.016 118.871 128.643 117.87L129.754 116.521C130.635 115.694 131.719 115.118 132.897 114.852L132.898 114.857Z" fill="#D5E2E8"/>
<path d="M151.215 80.7065L151.162 80.7184C151.006 80.7894 150.845 80.8506 150.681 80.9018C150.228 81.1218 149.722 81.2104 149.221 81.1577L149.164 81.1707C148.99 81.1628 148.818 81.1314 148.653 81.0772C147.985 80.9566 147.358 80.6662 146.833 80.2337C146.408 79.9352 146.067 79.5321 145.842 79.0633L145.471 78.0593L145.374 76.9979L145.556 75.9805L145.981 75.0568C146.235 74.6075 146.601 74.2329 147.044 73.97C147.3 73.7271 147.617 73.5589 147.961 73.4835C148.276 73.3147 148.63 73.2345 148.986 73.2514C149.33 73.1713 149.688 73.1866 150.024 73.2956C150.536 73.3422 151.029 73.5225 151.451 73.8187L152.232 74.4694L152.834 75.3095L153.204 76.3092L153.302 77.3749C153.3 77.8951 153.166 78.4058 152.911 78.8581C152.807 79.1839 152.622 79.4772 152.373 79.7099C152.078 80.1377 151.677 80.4814 151.211 80.7075L151.215 80.7065Z" fill="#D5E2E8"/>
<path d="M122.973 76.8165C126.705 75.9718 128.029 81.8001 124.292 82.6457C120.555 83.4914 119.232 77.6631 122.973 76.8165Z" fill="#D5E2E8"/>
<path d="M111.316 98.8152L110.87 99.6042C110.52 100.163 109.964 100.558 109.323 100.703C108.682 100.844 108.011 100.727 107.454 100.377L106.715 99.8472C106.242 99.5182 105.846 99.091 105.552 98.5947C105.314 98.1981 105.189 97.7441 105.19 97.2818C105.126 96.9922 105.139 96.6908 105.228 96.4084C105.239 96.1184 105.327 95.8368 105.483 95.5928C105.72 95.0718 106.089 94.6227 106.553 94.2906C106.894 94.0007 107.304 93.8053 107.744 93.7237C108.321 93.6087 108.918 93.6329 109.485 93.7944C110.029 93.9761 110.52 94.2877 110.917 94.7025L111.424 95.4106C111.653 95.8028 111.774 96.2484 111.777 96.7024C111.843 96.9917 111.83 97.2938 111.738 97.5758C111.703 98.0085 111.554 98.4238 111.308 98.7798L111.316 98.8152Z" fill="#D5E2E8"/>
<path d="M179.544 99.8657C179.57 99.8985 179.599 99.9294 179.63 99.9579L178.284 98.8352C178.346 98.8893 178.416 98.9346 178.49 98.9699L176.891 98.2206C177.051 98.2856 177.218 98.3351 177.387 98.3687L175.622 98.0521C175.726 98.0686 175.831 98.0729 175.935 98.065C176.832 98.0688 177.714 98.3067 178.493 98.7555C179.329 99.0647 180.073 99.5826 180.656 100.26L181.669 101.71C182.142 102.518 182.393 103.439 182.397 104.376C182.538 104.972 182.519 105.593 182.342 106.178C182.262 107.073 181.952 107.931 181.444 108.669L180.316 110.04C179.422 110.877 178.323 111.46 177.131 111.728C176.428 111.912 175.7 111.981 174.975 111.933L174.847 111.92L173.076 111.6C172.45 111.433 171.855 111.162 171.317 110.798C170.463 110.3 169.747 109.594 169.234 108.745C168.587 107.955 168.143 107.018 167.94 106.016L167.778 104.193C167.78 103.302 168.012 102.428 168.452 101.655C168.627 101.094 168.945 100.588 169.374 100.187C169.877 99.4563 170.56 98.8692 171.357 98.4828L173.063 97.8456L174.878 97.686C176.631 97.8464 178.276 98.6128 179.532 99.8544L179.544 99.8657Z" fill="#D5E2E8"/>
<path d="M176.099 73.5004C178.872 72.8729 179.857 77.2018 177.079 77.8303C174.302 78.4588 173.327 74.1279 176.099 73.5004Z" fill="#D5E2E8"/>
<path d="M205.588 87.669C207.907 87.144 208.731 90.7652 206.408 91.2912C204.084 91.8171 203.264 88.1949 205.588 87.669Z" fill="#D5E2E8"/>
<path d="M-31.427 17.4134L-31.6296 17.8266C-31.8628 18.2392 -32.1997 18.5832 -32.6067 18.8241C-32.978 19.1439 -33.4279 19.3581 -33.9097 19.4445L-34.885 19.5304C-35.5161 19.4984 -36.1289 19.3041 -36.6644 18.9661L-37.0207 18.6794L-37.8224 18.0194L-38.4381 17.1591C-38.7151 16.6814 -38.8632 16.1396 -38.8679 15.5873C-38.9279 14.8825 -38.8061 14.1745 -38.5143 13.5314C-38.4076 13.1976 -38.2176 12.897 -37.9625 12.658C-37.7747 12.3579 -37.5106 12.1136 -37.1974 11.9502C-36.7871 11.593 -36.2878 11.3547 -35.7527 11.2606L-34.6688 11.164L-33.6315 11.3524L-32.6904 11.7902L-31.892 12.4557L-31.2763 13.3159C-30.9967 13.7909 -30.8487 14.3321 -30.8476 14.8833C-30.7676 15.2359 -30.7818 15.6032 -30.8888 15.948C-30.9375 16.4736 -31.1198 16.9775 -31.4182 17.4114L-31.427 17.4134Z" fill="#D5E2E8"/>
<path d="M-24.3743 55.7758C-21.1483 55.0457 -20.0038 60.0822 -23.2342 60.8133C-26.4646 61.5445 -27.6047 56.5069 -24.3743 55.7758Z" fill="#D5E2E8"/>
<path d="M-7.66412 36.6964C-3.4787 35.7491 -1.99485 42.285 -6.18467 43.2333C-10.3745 44.1815 -11.8759 37.6496 -7.66412 36.6964Z" fill="#D5E2E8"/>
<path d="M-22.1462 24.9806C-19.8268 24.4557 -19.0027 28.0767 -21.3265 28.6026C-23.6503 29.1285 -24.4656 25.5055 -22.1462 24.9806Z" fill="#D5E2E8"/>
<path d="M10.9962 0.111259C15.9738 -1.01529 17.7424 6.75801 12.7559 7.88656C7.76949 9.0151 6.00977 1.2398 10.9962 0.111259Z" fill="#D5E2E8"/>
<path d="M17.0223 123.816L16.4068 123.774L15.5669 123.62C15.1629 123.505 14.795 123.287 14.4985 122.988C14.255 122.838 14.0564 122.624 13.9237 122.37C13.6356 122.035 13.4429 121.629 13.3661 121.194L13.2864 120.31L13.4379 119.467C13.5509 119.062 13.7653 118.693 14.0607 118.396C14.305 118.043 14.6362 117.76 15.022 117.574L15.5639 117.27C16.6656 116.677 18.0021 116.73 19.0561 117.41L19.7394 117.976C20.1554 118.432 20.4419 118.991 20.5689 119.596C20.6962 120.052 20.6996 120.533 20.5787 120.989C20.5387 121.439 20.3827 121.87 20.1262 122.24C19.4634 123.302 18.2829 123.925 17.0344 123.869L17.0223 123.816Z" fill="#D5E2E8"/>
<path d="M96.7195 140.827C97.1916 140.697 97.6899 140.697 98.1627 140.826C98.6338 140.868 99.0859 141.034 99.4741 141.306C100.269 141.851 100.842 142.665 101.09 143.599L101.177 144.579C101.15 145.214 100.958 145.83 100.619 146.365L100.028 147.085C99.5541 147.529 98.9714 147.839 98.3391 147.983C97.3941 148.153 96.4192 147.983 95.5845 147.505C94.793 146.956 94.2217 146.143 93.9733 145.21L93.8813 144.231C93.9118 143.597 94.104 142.982 94.4394 142.445L95.034 141.72C95.5057 141.276 96.0879 140.967 96.7195 140.827Z" fill="#D5E2E8"/>
<path d="M257.893 120.556C261.344 119.775 262.568 125.161 259.113 125.943C255.658 126.725 254.434 121.339 257.893 120.556Z" fill="#D5E2E8"/>
</svg>
