<svg width="320" height="948" viewBox="0 0 320 948" fill="none" xmlns="http://www.w3.org/2000/svg">
<path d="M196.718 62.9478C197.449 62.4039 198.311 62.0629 199.217 61.9588C201.882 61.4655 204.6 62.5598 206.192 64.7679L207.012 66.4041C207.396 67.5244 207.483 68.7242 207.265 69.8857L206.728 71.5413C206.215 72.6362 205.416 73.5709 204.416 74.2468C201.288 76.2565 197.127 75.457 194.942 72.4267L194.122 70.7904C193.737 69.6713 193.648 68.4724 193.865 67.3113L194.404 65.6495C194.92 64.5569 195.718 63.6231 196.716 62.944L196.718 62.9478Z" fill="#D5E2E8"/>
<path d="M201.236 24.4594L201.191 24.4899C201.072 24.6133 200.944 24.7292 200.811 24.8369C200.47 25.2078 200.032 25.4756 199.546 25.6103L199.498 25.6433C199.333 25.6998 199.162 25.7337 198.988 25.744C198.322 25.8767 197.633 25.8363 196.986 25.6265C196.481 25.5045 196.016 25.2547 195.634 24.9011L194.921 24.103L194.442 23.1511L194.238 22.138L194.294 21.1228C194.366 20.6117 194.569 20.1288 194.885 19.7218C195.034 19.402 195.267 19.1293 195.56 18.9329C195.79 18.6605 196.091 18.456 196.429 18.3409C196.718 18.1406 197.058 18.0234 197.41 18.0018C197.904 17.857 198.428 17.8443 198.93 17.9648L199.895 18.2838L200.763 18.8446L201.474 19.639L201.955 20.5947C202.145 21.0791 202.207 21.6036 202.136 22.1178C202.159 22.4589 202.094 22.7997 201.947 23.1076C201.83 23.6139 201.583 24.0804 201.232 24.4619L201.236 24.4594Z" fill="#D5E2E8"/>
<path d="M173.535 31.1973C176.697 29.0429 180.066 33.9797 176.9 36.1367C173.734 38.2937 170.365 33.3569 173.535 31.1973Z" fill="#D5E2E8"/>
<path d="M170.757 55.9383L170.631 56.836C170.511 57.4835 170.138 58.0552 169.596 58.4251C169.051 58.7917 168.384 58.929 167.738 58.8075L166.855 58.5858C166.295 58.4529 165.769 58.2009 165.314 57.8468C164.948 57.565 164.665 57.1885 164.496 56.7581C164.33 56.5124 164.231 56.2271 164.211 55.9315C164.115 55.6577 164.094 55.3634 164.149 55.0793C164.178 54.5077 164.357 53.9546 164.667 53.4753C164.878 53.0807 165.188 52.7485 165.567 52.5114C166.062 52.1926 166.626 51.9963 167.213 51.9385C167.785 51.9083 168.356 52.0181 168.878 52.2584L169.609 52.7311C169.966 53.0122 170.242 53.3821 170.411 53.8036C170.579 54.0484 170.678 54.3342 170.696 54.6303C170.821 55.0458 170.835 55.4867 170.737 55.9084L170.757 55.9383Z" fill="#D5E2E8"/>
<path d="M234.617 31.895C234.654 31.9159 234.692 31.9341 234.731 31.9494L233.067 31.3985C233.145 31.4259 233.226 31.4426 233.308 31.4481L231.546 31.3375C231.719 31.3391 231.892 31.3243 232.062 31.2933L230.304 31.646C230.406 31.6234 230.505 31.5889 230.599 31.5433C231.436 31.2178 232.343 31.116 233.232 31.2477C234.123 31.2288 235.006 31.4376 235.797 31.8544L237.27 32.8313C238.007 33.4102 238.578 34.1741 238.926 35.0449C239.275 35.5473 239.485 36.1328 239.536 36.7418C239.789 37.6036 239.816 38.5153 239.613 39.3884L239.066 41.0779C238.542 42.184 237.733 43.1291 236.722 43.8162C236.136 44.2451 235.484 44.5762 234.791 44.797L234.668 44.8319L232.903 45.1834C232.259 45.2577 231.607 45.2237 230.973 45.0829C229.995 44.9322 229.07 44.5383 228.281 43.9372C227.39 43.4394 226.633 42.7303 226.077 41.8722L225.258 40.236C224.933 39.4065 224.829 38.5077 224.955 37.6276C224.911 37.0408 225.021 36.4536 225.273 35.9235C225.474 35.0592 225.894 34.2625 226.493 33.6109L227.847 32.3923L229.477 31.5784C231.167 31.0846 232.978 31.1943 234.602 31.8888L234.617 31.895Z" fill="#D5E2E8"/>
<path d="M221.744 8.62975C224.093 7.02915 226.597 10.6955 224.244 12.2986C221.89 13.9017 219.395 10.2303 221.744 8.62975Z" fill="#D5E2E8"/>
<path d="M254.374 10.9973C256.339 9.65843 258.434 12.7251 256.465 14.0666C254.496 15.408 252.405 12.3388 254.374 10.9973Z" fill="#D5E2E8"/>
<path d="M8.10742 32.5539L8.07044 33.0126C8.0048 33.4821 7.81752 33.9256 7.52722 34.299C7.29901 34.7327 6.95903 35.0969 6.54243 35.354L5.66661 35.7915C5.06771 35.9932 4.42642 36.0372 3.80425 35.9191L3.36762 35.7831L2.3797 35.463L1.49143 34.8885C1.05862 34.5456 0.722125 34.0959 0.515207 33.5838C0.200917 32.9501 0.0545484 32.2467 0.0902156 31.5414C0.0671163 31.1918 0.133581 30.8424 0.283299 30.5265C0.348009 30.1785 0.504095 29.8543 0.735533 29.5874C0.986239 29.1047 1.36337 28.6999 1.82669 28.4161L2.79967 27.9288L3.83377 27.7236L4.86992 27.7858L5.85666 28.1122L6.74493 28.6867C7.17921 29.026 7.51541 29.4752 7.7186 29.9876C7.92229 30.2863 8.04375 30.6332 8.07067 30.9933C8.2181 31.5001 8.23333 32.0357 8.11488 32.5489L8.10742 32.5539Z" fill="#D5E2E8"/>
<path d="M28.7369 65.6573C31.4704 63.795 34.3822 68.061 31.645 69.9258C28.9077 71.7907 25.9997 67.5221 28.7369 65.6573Z" fill="#D5E2E8"/>
<path d="M37.2861 41.7792C40.8326 39.3631 44.6099 44.8995 41.0597 47.3182C37.5096 49.7369 33.7173 44.2106 37.2861 41.7792Z" fill="#D5E2E8"/>
<path d="M19.5166 36.1905C21.4819 34.8516 23.5765 37.9181 21.6075 39.2596C19.6384 40.601 17.5513 37.5295 19.5166 36.1905Z" fill="#D5E2E8"/>
<path d="M41.23 0.899838C45.4477 -1.97361 49.9437 4.60959 45.7185 7.48812C41.4933 10.3667 37.0048 3.77837 41.23 0.899838Z" fill="#D5E2E8"/>
<path d="M92.2012 113.777L91.6131 113.963L90.7753 114.128C90.3571 114.169 89.935 114.101 89.5495 113.932C89.2678 113.881 89.0046 113.755 88.7879 113.567C88.3973 113.362 88.069 113.055 87.8381 112.678L87.4397 111.885L87.2714 111.045C87.2281 110.627 87.2924 110.205 87.4582 109.82C87.556 109.402 87.7603 109.017 88.0511 108.703L88.4438 108.221C89.2512 107.265 90.5141 106.825 91.7438 107.07L92.5871 107.346C93.1414 107.618 93.6132 108.034 93.9532 108.55C94.2386 108.927 94.4181 109.373 94.473 109.842C94.6006 110.275 94.6136 110.733 94.5107 111.172C94.2837 112.403 93.4136 113.415 92.2319 113.822L92.2012 113.777Z" fill="#D5E2E8"/>
<path d="M172.584 100.376C172.976 100.082 173.439 99.8989 173.926 99.8457C174.38 99.7122 174.861 99.7003 175.322 99.811C176.262 100.027 177.094 100.574 177.667 101.353L178.107 102.232C178.315 102.832 178.362 103.476 178.243 104.098L177.957 104.985C177.679 105.571 177.251 106.073 176.715 106.44C175.898 106.944 174.929 107.144 173.977 107.005C173.04 106.785 172.21 106.237 171.637 105.461L171.192 104.584C170.988 103.983 170.941 103.34 171.056 102.717L171.344 101.825C171.62 101.239 172.048 100.738 172.584 100.376Z" fill="#D5E2E8"/>
<path d="M315.096 22.412C318.02 20.4201 321.133 24.9822 318.206 26.9767C315.278 28.9711 312.165 24.409 315.096 22.412Z" fill="#D5E2E8"/>
<path d="M256.956 313.27C257.866 313.225 258.772 313.421 259.582 313.838C262.072 314.911 263.721 317.332 263.816 320.053L263.587 321.869C263.283 323.013 262.688 324.059 261.86 324.903L260.493 325.98C259.458 326.604 258.274 326.936 257.066 326.941C253.35 326.872 250.336 323.892 250.207 320.158L250.436 318.343C250.738 317.198 251.331 316.153 252.158 315.309L253.53 314.227C254.566 313.607 255.749 313.275 256.956 313.265L256.956 313.27Z" fill="#D5E2E8"/>
<path d="M282.122 283.801L282.068 283.801C281.9 283.837 281.73 283.863 281.559 283.878C281.069 283.997 280.556 283.976 280.078 283.817L280.02 283.818C279.851 283.773 279.69 283.706 279.54 283.618C278.913 283.358 278.362 282.941 277.941 282.406C277.59 282.024 277.342 281.558 277.222 281.052L277.073 279.992L277.205 278.934L277.599 277.979L278.21 277.167C278.554 276.782 278.992 276.494 279.481 276.331C279.782 276.148 280.128 276.051 280.48 276.051C280.823 275.953 281.187 275.95 281.531 276.042C281.884 276.037 282.231 276.128 282.535 276.306C283.027 276.461 283.469 276.742 283.819 277.121L284.444 277.923L284.853 278.872L285.002 279.928L284.87 280.99C284.758 281.498 284.518 281.968 284.173 282.356C284.002 282.652 283.759 282.899 283.466 283.074C283.086 283.429 282.622 283.679 282.118 283.801L282.122 283.801Z" fill="#D5E2E8"/>
<path d="M255.355 273.989C259.181 273.958 259.234 279.934 255.403 279.965C251.572 279.996 251.52 274.02 255.355 273.989Z" fill="#D5E2E8"/>
<path d="M239.283 293.002L238.679 293.678C238.219 294.15 237.591 294.417 236.934 294.423C236.278 294.424 235.647 294.167 235.178 293.707L234.567 293.031C234.176 292.609 233.879 292.108 233.698 291.56C233.55 291.122 233.525 290.652 233.624 290.2C233.623 289.904 233.7 289.612 233.847 289.355C233.92 289.074 234.066 288.818 234.27 288.612C234.612 288.154 235.068 287.793 235.593 287.568C235.987 287.357 236.43 287.253 236.876 287.267C237.465 287.278 238.043 287.429 238.563 287.707C239.055 288 239.469 288.409 239.769 288.899L240.113 289.699C240.253 290.131 240.277 290.592 240.183 291.036C240.187 291.333 240.109 291.625 239.96 291.881C239.833 292.296 239.599 292.671 239.282 292.966L239.283 293.002Z" fill="#D5E2E8"/>
<path d="M305.724 308.551C305.743 308.588 305.764 308.625 305.788 308.659L304.712 307.276C304.762 307.342 304.82 307.401 304.885 307.451L303.482 306.379C303.625 306.476 303.777 306.56 303.935 306.629L302.278 305.944C302.376 305.982 302.478 306.009 302.581 306.023C303.457 306.218 304.268 306.638 304.933 307.242C305.684 307.722 306.302 308.387 306.727 309.173L307.408 310.805C307.698 311.696 307.748 312.648 307.552 313.565C307.562 314.177 307.412 314.78 307.115 315.314C306.846 316.171 306.361 316.944 305.707 317.557L304.312 318.656C303.262 319.284 302.064 319.619 300.841 319.628C300.115 319.658 299.389 319.57 298.691 319.369L298.569 319.329L296.907 318.639C296.331 318.343 295.808 317.952 295.359 317.482C294.631 316.813 294.081 315.971 293.76 315.032C293.296 314.123 293.062 313.112 293.077 312.09L293.306 310.275C293.498 309.405 293.911 308.6 294.506 307.939C294.796 307.427 295.214 307 295.719 306.7C296.366 306.093 297.158 305.665 298.019 305.457L299.822 305.197L301.629 305.428C303.308 305.958 304.752 307.057 305.715 308.537L305.724 308.551Z" fill="#D5E2E8"/>
<path d="M307.97 282.056C310.813 282.033 310.853 286.473 308.006 286.496C305.159 286.519 305.128 282.079 307.97 282.056Z" fill="#D5E2E8"/>
<path d="M333.767 302.177C336.145 302.157 336.18 305.871 333.797 305.89C331.415 305.91 331.385 302.196 333.767 302.177Z" fill="#D5E2E8"/>
<path d="M117.137 183.084L116.851 183.445C116.535 183.798 116.133 184.062 115.684 184.211C115.253 184.445 114.768 184.558 114.279 184.54L113.307 184.416C112.697 184.251 112.14 183.931 111.689 183.486L111.402 183.13L110.759 182.315L110.34 181.343C110.171 180.817 110.142 180.257 110.255 179.716C110.346 179.015 110.616 178.349 111.038 177.782C111.213 177.479 111.463 177.226 111.763 177.046C112.011 176.793 112.321 176.611 112.661 176.518C113.138 176.256 113.677 176.129 114.22 176.151L115.299 176.288L116.273 176.693L117.099 177.321L117.738 178.141L118.156 179.112C118.328 179.636 118.358 180.196 118.241 180.735C118.244 181.097 118.152 181.452 117.974 181.767C117.815 182.27 117.53 182.723 117.146 183.084L117.137 183.084Z" fill="#D5E2E8"/>
<path d="M115.863 222.068C119.17 222.042 119.216 227.206 115.904 227.233C112.592 227.26 112.551 222.095 115.863 222.068Z" fill="#D5E2E8"/>
<path d="M136.251 206.983C140.542 206.948 140.601 213.65 136.305 213.685C132.009 213.72 131.933 207.018 136.251 206.983Z" fill="#D5E2E8"/>
<path d="M124.594 192.453C126.972 192.434 127.007 196.147 124.624 196.167C122.242 196.186 122.216 192.472 124.594 192.453Z" fill="#D5E2E8"/>
<path d="M162.27 175.208C167.374 175.166 167.447 183.138 162.335 183.179C157.223 183.221 157.158 175.249 162.27 175.208Z" fill="#D5E2E8"/>
<path d="M141.829 297.361L141.236 297.189L140.448 296.86C140.078 296.661 139.765 296.37 139.539 296.014C139.333 295.816 139.185 295.565 139.109 295.288C138.899 294.9 138.797 294.462 138.814 294.02L138.925 293.14L139.252 292.348C139.449 291.977 139.737 291.662 140.089 291.434C140.402 291.142 140.786 290.935 141.203 290.836L141.797 290.654C143 290.309 144.294 290.646 145.18 291.534L145.727 292.232C146.036 292.766 146.197 293.374 146.192 293.993C146.22 294.464 146.121 294.935 145.905 295.355C145.771 295.786 145.526 296.174 145.197 296.481C144.323 297.378 143.037 297.735 141.829 297.415L141.829 297.361Z" fill="#D5E2E8"/>
<path d="M216.079 330.945C216.568 330.918 217.055 331.024 217.489 331.251C217.941 331.392 218.347 331.65 218.669 331.999C219.329 332.701 219.716 333.619 219.759 334.584L219.636 335.56C219.475 336.174 219.156 336.735 218.711 337.186L217.98 337.763C217.422 338.096 216.787 338.275 216.138 338.282C215.179 338.246 214.263 337.873 213.549 337.228C212.892 336.524 212.507 335.607 212.463 334.643L212.581 333.667C212.746 333.054 213.065 332.494 213.507 332.04L214.242 331.459C214.798 331.125 215.432 330.948 216.079 330.945Z" fill="#D5E2E8"/>
<path d="M377.875 345.443C381.412 345.415 381.461 350.938 377.919 350.966C374.377 350.995 374.328 345.472 377.875 345.443Z" fill="#D5E2E8"/>
<path d="M342.352 808.676C341.442 808.714 340.537 808.511 339.73 808.088C337.249 806.995 335.618 804.562 335.544 801.84L335.787 800.026C336.1 798.884 336.703 797.843 337.537 797.006L338.913 795.94C339.953 795.323 341.139 795 342.346 795.004C346.063 795.102 349.053 798.105 349.154 801.84L348.911 803.654C348.6 804.796 347.998 805.836 347.166 806.674L345.785 807.745C344.744 808.358 343.559 808.681 342.352 808.68V808.676Z" fill="#D5E2E8"/>
<path d="M316.96 837.951H317.014C317.182 837.916 317.352 837.891 317.524 837.878C318.014 837.763 318.527 837.788 319.004 837.95L319.062 837.95C319.23 837.996 319.391 838.064 319.541 838.154C320.166 838.418 320.713 838.84 321.13 839.377C321.478 839.762 321.722 840.23 321.839 840.737L321.979 841.798L321.84 842.855L321.438 843.807L320.82 844.615C320.474 844.997 320.034 845.282 319.544 845.44C319.241 845.621 318.894 845.715 318.542 845.713C318.198 845.808 317.835 845.808 317.491 845.713C317.138 845.716 316.792 845.622 316.489 845.442C315.999 845.283 315.558 844.999 315.211 844.617L314.593 843.81L314.191 842.858L314.051 841.801L314.19 840.74C314.306 840.233 314.55 839.765 314.898 839.38C315.071 839.085 315.316 838.84 315.611 838.667C315.993 838.315 316.459 838.068 316.964 837.951H316.96Z" fill="#D5E2E8"/>
<path d="M343.651 847.968C339.824 847.97 339.817 841.993 343.648 841.992C347.479 841.99 347.486 847.967 343.651 847.968Z" fill="#D5E2E8"/>
<path d="M359.869 829.079L360.478 828.408C360.941 827.94 361.571 827.677 362.228 827.677C362.884 827.68 363.513 827.942 363.979 828.406L364.584 829.086C364.972 829.511 365.265 830.015 365.442 830.564C365.586 831.003 365.608 831.474 365.506 831.924C365.505 832.221 365.426 832.512 365.276 832.768C365.201 833.048 365.053 833.304 364.848 833.507C364.502 833.963 364.043 834.32 363.517 834.542C363.121 834.749 362.677 834.85 362.231 834.832C361.642 834.817 361.065 834.662 360.548 834.38C360.058 834.083 359.647 833.67 359.351 833.178L359.013 832.376C358.876 831.943 358.856 831.482 358.953 831.038C358.952 830.741 359.031 830.449 359.183 830.195C359.313 829.78 359.55 829.408 359.869 829.115V829.079Z" fill="#D5E2E8"/>
<path d="M293.549 813.02C293.53 812.982 293.509 812.946 293.485 812.911L294.551 814.303C294.502 814.236 294.444 814.177 294.379 814.126L295.774 815.209C295.632 815.11 295.481 815.025 295.323 814.955L296.974 815.653C296.877 815.614 296.776 815.587 296.672 815.571C295.798 815.37 294.991 814.944 294.33 814.334C293.582 813.849 292.97 813.179 292.551 812.39L291.883 810.753C291.599 809.86 291.557 808.907 291.76 807.992C291.754 807.38 291.909 806.777 292.21 806.246C292.486 805.391 292.977 804.622 293.635 804.014L295.038 802.925C296.094 802.306 297.294 801.98 298.517 801.981C299.243 801.956 299.968 802.049 300.665 802.256L300.787 802.297L302.443 802.999C303.017 803.3 303.537 803.696 303.982 804.169C304.706 804.843 305.249 805.69 305.563 806.63C306.019 807.544 306.246 808.556 306.223 809.578L305.98 811.391C305.781 812.26 305.362 813.062 304.762 813.718C304.468 814.228 304.046 814.651 303.54 814.948C302.888 815.549 302.092 815.971 301.23 816.173L299.425 816.418L297.62 816.174C295.945 815.631 294.509 814.521 293.558 813.033L293.549 813.02Z" fill="#D5E2E8"/>
<path d="M291.099 839.496C288.256 839.497 288.25 835.058 291.097 835.057C293.945 835.056 293.942 839.495 291.099 839.496Z" fill="#D5E2E8"/>
<path d="M265.458 819.178C263.08 819.179 263.074 815.465 265.456 815.464C267.839 815.463 267.84 819.177 265.458 819.178Z" fill="#D5E2E8"/>
<path d="M481.165 939.934L481.454 939.575C481.772 939.224 482.177 938.963 482.627 938.818C483.06 938.588 483.546 938.478 484.035 938.5L485.005 938.631C485.613 938.801 486.168 939.126 486.616 939.573L486.901 939.931L487.537 940.752L487.948 941.727C488.113 942.254 488.138 942.815 488.021 943.355C487.924 944.055 487.649 944.719 487.223 945.282C487.045 945.584 486.794 945.836 486.492 946.012C486.243 946.264 485.932 946.444 485.59 946.534C485.111 946.792 484.572 946.915 484.029 946.888L482.95 946.744L481.98 946.332L481.159 945.697L480.527 944.872L480.116 943.897C479.948 943.372 479.922 942.812 480.043 942.274C480.042 941.912 480.137 941.557 480.318 941.245C480.481 940.743 480.77 940.291 481.156 939.934H481.165Z" fill="#D5E2E8"/>
<path d="M482.739 900.96C479.432 900.961 479.425 895.797 482.737 895.795C486.049 895.794 486.051 900.959 482.739 900.96Z" fill="#D5E2E8"/>
<path d="M462.236 915.888C457.944 915.89 457.937 909.188 462.233 909.186C466.529 909.185 466.554 915.887 462.236 915.888Z" fill="#D5E2E8"/>
<path d="M473.78 930.507C471.402 930.508 471.396 926.795 473.779 926.794C476.161 926.793 476.158 930.507 473.78 930.507Z" fill="#D5E2E8"/>
<path d="M435.972 947.462C430.869 947.464 430.857 939.493 435.969 939.491C441.082 939.489 441.085 947.46 435.972 947.462Z" fill="#D5E2E8"/>
<path d="M457.353 825.47L457.944 825.647L458.73 825.982C459.098 826.184 459.409 826.477 459.633 826.834C459.837 827.035 459.984 827.287 460.057 827.564C460.264 827.954 460.363 828.392 460.342 828.834L460.225 829.714L459.891 830.503C459.692 830.872 459.401 831.185 459.048 831.41C458.732 831.7 458.346 831.903 457.929 832L457.333 832.177C456.128 832.513 454.836 832.166 453.958 831.271L453.416 830.569C453.111 830.032 452.955 829.423 452.964 828.805C452.94 828.333 453.043 827.863 453.261 827.444C453.399 827.015 453.647 826.629 453.978 826.324C454.859 825.434 456.148 825.087 457.353 825.416L457.353 825.47Z" fill="#D5E2E8"/>
<path d="M383.363 791.316C382.874 791.339 382.388 791.229 381.956 790.999C381.505 790.854 381.101 790.593 380.782 790.242C380.127 789.535 379.747 788.614 379.712 787.649L379.842 786.674C380.008 786.061 380.332 785.503 380.78 785.055L381.515 784.483C382.075 784.154 382.712 783.98 383.361 783.979C384.32 784.022 385.233 784.402 385.942 785.053C386.593 785.762 386.971 786.682 387.008 787.646L386.882 788.621C386.713 789.232 386.39 789.79 385.944 790.24L385.204 790.816C384.646 791.146 384.011 791.318 383.363 791.316Z" fill="#D5E2E8"/>
<path d="M221.684 775.573C218.147 775.575 218.14 770.051 221.682 770.05C225.225 770.048 225.231 775.572 221.684 775.573Z" fill="#D5E2E8"/>
</svg>
